<svg id="Layer_1" data-name="Layer 1" xmlns="http://www.w3.org/2000/svg" viewBox="0 0 393.65 266.39"><defs><style>.cls-1{fill:#a1ddf3;}.cls-2{fill:#fff;}.cls-3{fill:#7bd1ee;}.cls-4{font-size:23.84px;fill:#231f20;font-family:ArialMT, Arial;}.cls-5{fill:#8a7e6f;}.cls-6{fill:#655c54;}.cls-7{fill:#bab3aa;}.cls-8{fill:#92897c;}.cls-9{fill:#514841;}.cls-10{fill:#fafbfb;}.cls-11{fill:#5c4737;}</style></defs><title>cloud_and_pathar</title><path class="cls-1" d="M393.58,70.42c-1.09-14.28-13.18-22.89-26.72-22.89a19.66,19.66,0,0,0-4.93.65,26.77,26.77,0,0,0,1.17-9.82c-1.21-15.9-14.67-25.49-29.75-25.49-8.56,0-15.94,5-20.55,11.92a40.08,40.08,0,0,0-8.91-11.35A32.25,32.25,0,0,0,292.18,4.6C288.24,3,284.25,1.14,280,.69Q274.17.2,268.35,0A42.45,42.45,0,0,0,230.1,34c-.08.43-.14.86-.21,1.3A34.4,34.4,0,0,0,199.76,72.1c.2.92.39,1.84.58,2.76a33.84,33.84,0,0,0,.82,3.88c.15.71.3,1.4.44,2.1a34.73,34.73,0,0,0,7.93,12.65c.31.32.63.64.95,1s.58.62.91.91l.15.11.31.21a35,35,0,0,0,6.8,4.57l.27.17a35.75,35.75,0,0,0,5.06,2l.71.21c1,.27,1.93.12,2.91.31,0,0,0-.4,0-.4h0c1,0,2,.73,3,.83.23,0,.46.25.7.27.95.07,1.9.23,2.87.23,0,0,.1.06.15.06.82,0,1.65,0,2.49-.07l.47,0c.66,0,1.31-.15,2-.24.35,0,.7-.08,1-.15a32.94,32.94,0,0,0,4.4-1.11c8.2,14.93,26,24.57,43.42,17.2l1-.4c.81-.34,1.59-.73,2.37-1.12a34.14,34.14,0,0,0,17.84-16.72,33.8,33.8,0,0,0,1.42-3.34l.4.27a35.64,35.64,0,0,0,18.44,3.58c3-.63,6-1.25,9-1.89a35.45,35.45,0,0,0,13.92-9.07,28.45,28.45,0,0,0,18.29,6.32C384.25,97.14,394.56,83.15,393.58,70.42Z"/><path class="cls-2" d="M241.36,33.45A26.81,26.81,0,0,1,257.29,8.38a26.83,26.83,0,0,1,29.09,5.95c-8.44-2.28-16.83-.75-25,2.4A42.64,42.64,0,0,0,241.36,33.45Z"/><path class="cls-3" d="M393.58,70.42a23.72,23.72,0,0,0-4.7-12.64,33.53,33.53,0,0,1-28.86,17A32.69,32.69,0,0,1,343.25,70C338.48,79.7,329.09,86.93,315,86.93a35.54,35.54,0,0,1-9.39-1.25c-3.64,12-13.58,21.84-29.88,21.84-13.93,0-23.21-7.19-27.89-16.78-.15.1-.3.21-.46.3a32.81,32.81,0,0,1-16.66,4.51L222,94.37c-2.86-1-5.84-1.84-8.33-3.54A33.06,33.06,0,0,1,201.83,79a13.43,13.43,0,0,1-.91-1.44c.09.39.14.78.24,1.16.15.71.3,1.4.44,2.1a34.73,34.73,0,0,0,7.93,12.65c.31.32.63.64.95,1s.58.62.91.91l.15.11.31.21a35,35,0,0,0,6.8,4.57l.27.17a35.75,35.75,0,0,0,5.06,2l.71.21c1,.27,1.93.61,2.91.8,0,0,0,.08,0,.08h0c1,0,2,.24,3,.34.23,0,.46,0,.7,0,.95.08,1.9.11,2.87.11h.15q1.23,0,2.49-.09c.16,0,.31,0,.47-.06.66-.06,1.31-.16,2-.25.35,0,.7-.09,1-.15a34.55,34.55,0,0,0,4.4-1.11c8.2,14.93,26,24.57,43.42,17.19l1-.4c.81-.34,1.59-.73,2.37-1.12a34.14,34.14,0,0,0,17.84-16.72,33.8,33.8,0,0,0,1.42-3.34l.4.27a35.64,35.64,0,0,0,18.44,3.58c3-.63,6-1.25,9-1.89a35.45,35.45,0,0,0,13.92-9.07,28.45,28.45,0,0,0,18.29,6.32C384.25,97.14,394.56,83.15,393.58,70.42Z"/><path class="cls-1" d="M216.27,61S173,58.37,149.49,95.17c0,0,34.77-31.58,66.78-7.66V61Z"/><text class="cls-4" transform="translate(234.19 55.84)">Remember<tspan x="0" y="28.6">me?</tspan></text><path class="cls-5" d="M161,118.49c-9.71-3.64-28.7-15.59-39.3-16-3.41-.14-12.9,1.84-20.66,18.07-4.12,8.6-4,19.29-3.54,28.5.84,18.07,14.18,80.11,16.93,88.11,3.39,9.94,7.1,21.6,14.39,29.12q4.88-.15,9.72-.54c-.34-.77-.72-1.62-1.11-2.57-6.57-15.23-15.52-65,8.81-70.27a69.29,69.29,0,0,1,10.29-4.13c8.9-2.88,17.16-5.49,25.46-9.85.48-.25,1-.53,1.48-.82l.3-.17,1.52-.9h0c-1.2-6.42-3.34-13-6.89-18-6.06-8.62-16.71-7.35-26.22-8.15-6.26-.51-11.87.89-14.57,3.65-2.88,2.94-3.18-.37-2.42-2.23,1.6-3.95,5-3.07,7.84-5.86,2.6-2.56,2.88-6.67,6.28-8.68,2.75-1.63,5.76.27,11.57-2.27,8-3.52,19.29,7.49,26.12,11.81a48.4,48.4,0,0,1,4.39,3.12,154,154,0,0,0-22.5-28.49A72.74,72.74,0,0,0,161,118.49Z"/><path class="cls-6" d="M185.24,177l-1.51.89C184.24,177.64,184.74,177.34,185.24,177Z"/><path class="cls-6" d="M183.44,178.09c-.5.29-1,.57-1.48.82C182.44,178.66,182.94,178.38,183.44,178.09Z"/><path class="cls-7" d="M83.19,94.91c-12.7,6-24.14,15.19-35.59,23.24C36.43,126,23.88,133.21,13.94,142.63c-.75.72-1.44,1.44-2.12,2.22,16.73-7.51,26.39-7,44.39-14,2-.77,17.9-9.64,19.92-10.49-8.25,24.6-5,67.32,4.27,88.4,1.51-5.76,3.47-13.11,1.44-31.75-1.36-12.68-3.24-31.36-1-38.83,3.75-12.74,14.93-25,23.56-35,10.87-12.65,21.54-4.36,25.72-2.21a194.42,194.42,0,0,0,28.08,11.34c-2.27-1.9-4.58-3.77-7-5.57C131.43,91.85,106.64,83.78,83.19,94.91Z"/><path class="cls-8" d="M130.11,100.93c-4.18-2.16-14.86-10.44-25.73,2.21-8.63,10-19.81,22.28-23.55,35-2.16,7.48-.31,26.16,1,38.88,2,18.63,0,26-1.44,31.74-9.36-21.08-12.51-63.79-4.27-88.4-2,.86-17.94,9.73-19.92,10.5-18,7-27.66,6.48-44.39,14-7.9,8.88-9.73,20-10.43,31.81C.32,195-2.3,231,4.55,240.67a27.16,27.16,0,0,0,2.8,3.27c-1.72-5.66,1.83-12.13,6.16-19.94,8.2-14.79,16.33-28.32,30.24-38.33,0,0,.1,0,.12.05,3.08-5.33,5.84-10.79,9.36-15.83a.37.37,0,0,1,.49-.23.38.38,0,0,1,.23.49h0c-1.59,13.31-12,27-18.81,38.15-3.88,6.37-8,12.65-11.58,19.2-4.41,8.08-6.54,14.4-5.13,23.82a.2.2,0,0,1,0,.11,79,79,0,0,0,8,3.15c0-9.3,6.76-16.72,14.65-21.08,5.63-3.13,12.13-3.88,18-6.37,4.25-1.78,8.12-3.47,12.81-3.14,12.78.89,15,7.66,22.46,16.42,3.14,3.7,8.5-1.82,10.56-6.41,1.44-3.16,4.16-4.53,7-6.1-4.71-20-13.74-64.05-14.43-78.86-.43-9.2-.58-19.89,3.54-28.5,7.76-16.22,17.27-18.2,20.66-18.07,10.6.42,29.59,12.37,39.3,16a72.7,72.7,0,0,1,7.87,3.49c-3.36-3.36-6.92-6.58-10.64-9.7A195.45,195.45,0,0,1,130.11,100.93Z"/><path class="cls-6" d="M57.6,145.58c-6.57,2.43-14.13,2.62-19.83,7-3.89,3-4.36,6.9-6.48,11.08-2.66,5.3-8,8.49-11.63,13-7.33,9.17-8.34,22.32-10.32,33.48-1.19,6.77-5.59,20.08,3,23.94a.94.94,0,0,0,1.27-.42.73.73,0,0,0,.07-.19c5.12-14,13.6-25.74,23.33-36.86,5.91-6.75,15.2-17.28,16.93-26.51.58-1.55,3.55-15.73,9.22-23.44C65.74,143.29,59.94,144.73,57.6,145.58Z"/><path class="cls-5" d="M53.29,169.89c-3.55,5-6.31,10.5-9.36,15.84a.07.07,0,0,0-.12,0c-13.92,10-22.06,23.54-30.24,38.33-4.32,7.8-7.87,14.28-6.15,19.93a38.41,38.41,0,0,0,11.11,7.53v-.11c-1.44-9.45.72-15.74,5.12-23.82,3.6-6.55,7.7-12.83,11.58-19.2C42,197.17,52.45,183.47,54,170.19a.4.4,0,0,0-.75-.3Z"/><path class="cls-6" d="M112,227.92c-2.84,1.57-5.6,2.94-7,6.1-2.06,4.6-7.42,10.08-10.56,6.41C87,231.68,84.7,224.9,71.92,224c-4.69-.32-8.56,1.36-12.8,3.15-5.91,2.48-12.41,3.23-18,6.36-7.92,4.36-14.7,11.78-14.65,21.09l1.57.56v0c8.54-12.74,24.6-12.14,38.25-10.68,6.92.72,13.19,2.4,18.17,7.27,4.73,4.64,11.91,7.61,16.47,5.59,5.52-2.44,9.36,3.4,13.84,9,4.69.09,9.36.09,14-.07-7.31-7.53-11-19.18-14.4-29.12C113.87,235.69,113,232.41,112,227.92Z"/><path class="cls-6" d="M191.32,150.46a46.5,46.5,0,0,0-4.39-3.12C180.1,143,168.84,132,160.81,135.52c-5.8,2.55-8.82.65-11.58,2.28-3.38,2-3.67,6.12-6.27,8.67-2.85,2.8-6.24,1.92-7.84,5.86-.76,1.87-.46,5.18,2.42,2.24,2.7-2.76,8.31-4.16,14.57-3.65,9.53.77,20.15-.5,26.27,8.09,3.55,5,5.7,11.59,6.89,18h0c-.52.31-1,.61-1.52.89l-.29.17c-.5.29-1,.57-1.48.82-8.3,4.36-16.56,7-25.46,9.85a68.86,68.86,0,0,0-10.29,4.13c-24.34,5.32-15.4,55.06-8.83,70.32.41,1,.77,1.81,1.11,2.58,3.69-.29,7.37-.67,11-1.17,4.78-.66,11.26-2.58,18.29-5.2C185.42,235.64,188.4,179,188.71,179c1.59-2.72,6.32-4.67,9-5.9.72-.32,1.3.37,1.39,1l.39,2.16c4.92,14.74,10.57,44,9.09,62.9,3.32-2.28,5.71-4.32,6.72-5.93,0,0,1.05-12-2.22-30C209.66,184.26,195.83,157.81,191.32,150.46Z"/><path class="cls-9" d="M199.51,176.21l-.39-2.16c-.09-.6-.68-1.29-1.39-1-2.73,1.23-7.46,3.18-9,5.89-.28,0-3.26,56.63-20.88,80.42,12-3.45,25.2-.33,31.94-3.6,7.83-3.81,12.72-8.81,12-12C213.25,224.91,204.43,191,199.51,176.21Z"/><path class="cls-5" d="M100.91,257.32c-4.55,2-11.73-.95-16.47-5.59-5-4.88-11.24-6.53-18.17-7.28-13.64-1.44-29.7-2-38.24,10.69v0l.18.07c12.74,4.22,26.08,6.25,39.39,7.64,15.53,1.63,31.38,3.15,47.18,3.46C110.28,260.71,106.44,254.88,100.91,257.32Z"/><path class="cls-8" d="M189.87,170.64c-2.16.18-6.13-2-8.29-1.44-5,1.28-10.3,5.81-24.07,6.61-8.74.5-17.94-.52-25.28,4.6-3,2.12-3.65,4.08-5.34,7.52-3.39,6.87-7.92,6.35-9.12,10-1.58,4.73,2.34,12,1.59,16-.25,1.28.93,1.44,1.65.28,4.51-7.2,9.48-16.34,16.74-21.1,5.12-3.34,10-5.94,23.38-6.71,9.75-.55,15.26-4.32,22.58-5.3,10.71-1.44,9-6.6,15.62-7.53C196.86,172.08,194.38,170.27,189.87,170.64Z"/><path class="cls-10" d="M72.57,200.12s7.67,24,30.88,24,30.88-24,30.88-24H72.57Z"/><path class="cls-10" d="M103.45,226c-24.32,0-32.62-25.07-32.7-25.32a1.9,1.9,0,0,1,1.82-2.5h61.76a1.9,1.9,0,0,1,1.82,2.5C136.07,201,127.77,226,103.45,226ZM75.37,202c2.6,5.92,10.68,20.17,28.08,20.17,17.2,0,25.4-14.28,28.05-20.17Z"/><ellipse class="cls-10" cx="68.05" cy="158.94" rx="15.97" ry="15.91"/><ellipse class="cls-10" cx="138.82" cy="158.94" rx="15.97" ry="15.91"/><ellipse class="cls-11" cx="68.05" cy="158.94" rx="7.68" ry="7.64"/><ellipse class="cls-11" cx="68.05" cy="158.94" rx="7.68" ry="7.64"/><ellipse class="cls-11" cx="138.82" cy="158.94" rx="7.68" ry="7.64"/></svg>