<svg id="Layer_1" data-name="Layer 1" xmlns="http://www.w3.org/2000/svg" viewBox="0 0 244.16 122.04"><defs><style>.cls-1{fill:#a1ddf3;}.cls-2{fill:#fff;}.cls-3{fill:#7bd1ee;}.cls-4{font-size:23.84px;fill:#231f20;font-family:ArialMT, Arial;}</style></defs><title>high_cloud</title><path class="cls-1" d="M244.09,70.42C243,56.14,230.92,47.53,217.37,47.53a19.66,19.66,0,0,0-4.93.65,26.78,26.78,0,0,0,1.18-9.82c-1.22-15.9-14.68-25.49-29.76-25.49-8.56,0-15.94,5-20.55,11.92a40.08,40.08,0,0,0-8.91-11.35A32.25,32.25,0,0,0,142.69,4.6C138.75,3,134.76,1.14,130.5.69Q124.68.2,118.86,0A42.45,42.45,0,0,0,80.61,34c-.08.43-.14.86-.21,1.3A34.4,34.4,0,0,0,50.27,72.1c.2.92.39,1.84.59,2.76a31.81,31.81,0,0,0,.81,3.88c.15.71.3,1.4.44,2.1A34.73,34.73,0,0,0,60,93.49c.31.32.63.64,1,1s.58.62.91.91l.15.11.31.21a35,35,0,0,0,6.8,4.57l.27.17a36.73,36.73,0,0,0,5.06,2l.71.21c1,.27,1.94.12,2.92.31v-.4h0c1,0,2,.73,3,.83.23,0,.46.25.7.27.95.07,1.9.23,2.87.23,0,0,.1.06.15.06.82,0,1.65,0,2.49-.07l.47,0c.66,0,1.31-.15,2-.24.35,0,.7-.08,1.05-.15a33.19,33.19,0,0,0,4.39-1.11c8.2,14.93,26,24.57,43.43,17.2l.94-.4c.81-.34,1.59-.73,2.37-1.12a34.11,34.11,0,0,0,17.84-16.72,31.57,31.57,0,0,0,1.42-3.34l.4.27A35.64,35.64,0,0,0,180,101.78c3-.63,6-1.25,9-1.89a35.45,35.45,0,0,0,13.92-9.07,28.45,28.45,0,0,0,18.29,6.32C234.76,97.14,245.07,83.15,244.09,70.42Z"/><path class="cls-2" d="M91.87,33.45A26.81,26.81,0,0,1,107.8,8.38a26.84,26.84,0,0,1,29.1,5.95c-8.45-2.28-16.83-.75-25,2.4A42.64,42.64,0,0,0,91.87,33.45Z"/><path class="cls-3" d="M244.09,70.42a23.72,23.72,0,0,0-4.7-12.64,33.53,33.53,0,0,1-28.86,17A32.69,32.69,0,0,1,193.76,70C189,79.7,179.6,86.93,165.52,86.93a35.54,35.54,0,0,1-9.39-1.25c-3.64,12-13.57,21.84-29.87,21.84-13.94,0-23.22-7.19-27.9-16.78-.15.1-.3.21-.45.3a32.86,32.86,0,0,1-16.66,4.51l-8.78-1.18c-2.86-1-5.83-1.84-8.33-3.54A33.06,33.06,0,0,1,52.34,79a13.43,13.43,0,0,1-.91-1.44c.09.39.14.78.24,1.16.15.71.3,1.4.44,2.1A34.73,34.73,0,0,0,60,93.49c.31.32.63.64,1,1s.58.62.91.91l.15.11.31.21a35,35,0,0,0,6.8,4.57l.27.17a36.73,36.73,0,0,0,5.06,2l.71.21c1,.27,1.94.61,2.92.8v.08h0c1,0,2,.24,3,.34.23,0,.46,0,.7,0,.95.08,1.9.11,2.87.11h.15q1.23,0,2.49-.09c.16,0,.31,0,.47-.06.66-.06,1.31-.16,2-.25l1.05-.15a34.83,34.83,0,0,0,4.39-1.11c8.2,14.93,26,24.57,43.43,17.19l.94-.4c.81-.34,1.59-.73,2.37-1.12a34.11,34.11,0,0,0,17.84-16.72,31.57,31.57,0,0,0,1.42-3.34l.4.27A35.64,35.64,0,0,0,180,101.78c3-.63,6-1.25,9-1.89a35.45,35.45,0,0,0,13.92-9.07,28.45,28.45,0,0,0,18.29,6.32C234.76,97.14,245.07,83.15,244.09,70.42Z"/><path class="cls-1" d="M66.78,61S23.51,58.37,0,95.17c0,0,34.77-31.58,66.78-7.66V61Z"/><text class="cls-4" transform="translate(84.7 55.84)">Remember<tspan x="0" y="28.6">me?</tspan></text></svg>