<svg id="Layer_1" data-name="Layer 1" xmlns="http://www.w3.org/2000/svg" viewBox="0 0 299.31 245.44"><defs><style>.cls-1{fill:#8a7e6f;}.cls-2{fill:#645b53;}.cls-3{fill:#bab3a9;}.cls-4{fill:#92897c;}.cls-5{fill:#504740;}</style></defs><title>pathar</title><path class="cls-1" d="M224.25,40c-13.48-5.06-39.86-21.66-54.58-22.24-4.75-.19-17.92,2.56-28.71,25.1-5.72,11.95-5.51,26.8-4.91,39.59,1.17,25.1,19.7,111.27,23.51,122.39,4.72,13.81,9.87,30,20,40.45q6.76-.22,13.49-.75c-.47-1.07-1-2.25-1.54-3.58-9.12-21.15-21.56-90.25,12.24-97.6a95.52,95.52,0,0,1,14.3-5.74c12.36-4,23.83-7.62,35.36-13.68.67-.35,1.36-.74,2.06-1.14l.41-.24,2.11-1.24h0c-1.66-8.92-4.64-18.08-9.57-25C240,84.35,225.21,86.12,212,85c-8.69-.7-16.49,1.24-20.24,5.07-4,4.09-4.41-.51-3.36-3.1,2.23-5.48,6.94-4.26,10.89-8.14,3.62-3.55,4-9.26,8.72-12.05,3.83-2.26,8,.38,16.08-3.16,11.15-4.89,26.79,10.41,36.28,16.41a65.19,65.19,0,0,1,6.1,4.34,214,214,0,0,0-31.25-39.58A100.77,100.77,0,0,0,224.25,40Z" transform="translate(-0.69 -0.02)"/><path class="cls-2" d="M258,121.31l-2.11,1.24C256.6,122.16,257.3,121.74,258,121.31Z" transform="translate(-0.69 -0.02)"/><path class="cls-2" d="M255.5,122.79c-.7.4-1.39.79-2.06,1.14C254.11,123.58,254.8,123.19,255.5,122.79Z" transform="translate(-0.69 -0.02)"/><path class="cls-3" d="M116.24,7.24C98.6,15.62,82.71,28.34,66.8,39.53c-15.51,10.92-32.95,20.91-46.75,34-1.05,1-2,2-2.95,3.08,23.24-10.43,36.66-9.73,61.66-19.48,2.74-1.07,24.87-13.39,27.67-14.58-11.45,34.18-7,93.51,5.93,122.79,2.1-8,4.82-18.21,2-44.09-1.88-17.62-4.5-43.57-1.45-53.95,5.2-17.69,20.74-34.7,32.72-48.64,15.1-17.57,29.93-6.05,35.73-3.07a271.19,271.19,0,0,0,39,15.76c-3.15-2.64-6.36-5.24-9.7-7.74C183.25,3,148.81-8.22,116.24,7.24Z" transform="translate(-0.69 -0.02)"/><path class="cls-4" d="M181.41,15.6c-5.8-3-20.63-14.5-35.73,3.07-12,13.94-27.52,30.95-32.72,48.64-3,10.38-.43,36.33,1.45,54,2.77,25.88,0,36.09-2,44.09-13-29.28-17.38-88.61-5.93-122.79-2.8,1.19-24.93,13.51-27.67,14.58-25,9.75-38.42,9-61.66,19.48C6.17,89,3.63,104.43,2.65,120.85,1.13,146.21-2.51,196.26,7,209.71a36.88,36.88,0,0,0,3.9,4.54c-2.39-7.85,2.54-16.85,8.55-27.69,11.39-20.54,22.69-39.34,42-53.24.08,0,.14,0,.17.07,4.28-7.41,8.11-15,13-22a.52.52,0,0,1,1,.36c-2.21,18.49-16.7,37.52-26.13,53-5.39,8.85-11.11,17.57-16.08,26.67-6.12,11.22-9.09,20-7.12,33.08a.85.85,0,0,1,0,.16,111.37,111.37,0,0,0,11.06,4.38c-.07-12.93,9.4-23.23,20.35-29.29,7.82-4.34,16.85-5.39,25-8.84,5.9-2.48,11.27-4.82,17.79-4.37,17.75,1.24,20.87,10.65,31.19,22.81,4.37,5.14,11.81-2.52,14.67-8.9,2-4.39,5.79-6.29,9.74-8.48C149.55,164.22,137,103,136.05,82.44c-.6-12.79-.81-27.64,4.91-39.59,10.79-22.54,24-25.29,28.71-25.1,14.72.58,41.1,17.18,54.58,22.24a100.77,100.77,0,0,1,10.94,4.84c-4.67-4.66-9.62-9.14-14.79-13.47A271.19,271.19,0,0,1,181.41,15.6Z" transform="translate(-0.69 -0.02)"/><path class="cls-2" d="M80.7,77.63C71.57,81,61.07,81.27,53.15,87.38c-5.41,4.16-6.06,9.59-9,15.39-3.7,7.36-11.09,11.79-16.15,18.1-10.19,12.73-11.59,31-14.34,46.51-1.66,9.4-7.77,27.89,4.19,33.25a1.32,1.32,0,0,0,1.87-.85c7.11-19.42,18.89-35.76,32.4-51.2,8.21-9.38,21.11-24,23.52-36.82.81-2.15,4.93-21.86,12.81-32.56C92,74.44,83.94,76.45,80.7,77.63Z" transform="translate(-0.69 -0.02)"/><path class="cls-1" d="M74.71,111.4c-4.94,7-8.77,14.58-13,22,0-.07-.09-.12-.17-.07-19.34,13.9-30.64,32.7-42,53.24-6,10.84-10.94,19.84-8.55,27.69a53.66,53.66,0,0,0,15.43,10.46.85.85,0,0,0,0-.16c-2-13.12,1-21.86,7.12-33.08,5-9.1,10.69-17.82,16.08-26.67,9.43-15.52,23.92-34.55,26.13-53A.52.52,0,0,0,74.71,111.4Z" transform="translate(-0.69 -0.02)"/><path class="cls-2" d="M156.19,192c-3.95,2.19-7.78,4.09-9.74,8.48-2.86,6.38-10.3,14-14.67,8.9-10.32-12.16-13.44-21.57-31.19-22.81-6.52-.45-11.89,1.89-17.79,4.37-8.2,3.45-17.23,4.5-25,8.84-11,6.06-20.42,16.36-20.35,29.29.73.26,1.47.54,2.19.78l0-.06c11.86-17.7,34.17-16.87,53.12-14.84,9.62,1,18.32,3.33,25.24,10.1,6.58,6.45,16.55,10.57,22.88,7.77,7.67-3.39,13,4.71,19.23,12.54,6.51.12,13,.12,19.5-.1-10.16-10.46-15.31-26.64-20-40.45C158.86,202.8,157.67,198.24,156.19,192Z" transform="translate(-0.69 -0.02)"/><path class="cls-2" d="M266.44,84.41a65.19,65.19,0,0,0-6.1-4.34c-9.49-6-25.13-21.3-36.28-16.41-8.06,3.54-12.25.9-16.08,3.16-4.7,2.79-5.1,8.5-8.72,12.05-3.95,3.88-8.66,2.66-10.89,8.14-1.05,2.59-.64,7.19,3.36,3.1,3.75-3.83,11.55-5.77,20.24-5.07,13.24,1.08,28-.69,36.5,11.24,4.93,6.94,7.91,16.1,9.57,25h0c-.72.43-1.42.85-2.11,1.24l-.41.24c-.7.4-1.39.79-2.06,1.14-11.53,6.06-23,9.72-35.36,13.68a95.52,95.52,0,0,0-14.3,5.74C170,150.7,182.42,219.8,191.54,241c.57,1.33,1.07,2.51,1.54,3.58,5.13-.4,10.24-.93,15.33-1.63,6.64-.91,15.64-3.58,25.4-7.22,24.43-33,28.58-111.65,29-111.7,2.21-3.77,8.78-6.48,12.58-8.19,1-.44,1.8.52,1.93,1.36.17,1,.36,2,.54,3,6.83,20.48,14.68,61.17,12.63,87.38,4.61-3.18,7.92-6,9.33-8.25,0,0,1.45-16.7-3.08-41.63C291.91,131.35,272.7,94.61,266.44,84.41Z" transform="translate(-0.69 -0.02)"/><path class="cls-5" d="M277.82,120.18c-.18-1-.37-2-.54-3-.13-.84-.95-1.8-1.93-1.36-3.8,1.71-10.37,4.42-12.58,8.19-.38,0-4.53,78.66-29,111.7,16.66-4.78,35-.45,44.37-5,10.87-5.29,17.66-12.23,16.67-16.62C296.9,187.82,284.65,140.66,277.82,120.18Z" transform="translate(-0.69 -0.02)"/><path class="cls-1" d="M140.86,232.84c-6.33,2.8-16.3-1.32-22.88-7.77-6.92-6.77-15.62-9.06-25.24-10.1-18.95-2-41.26-2.86-53.12,14.84l0,.06.25.09c17.69,5.87,36.22,8.69,54.71,10.62,21.58,2.26,43.59,4.38,65.54,4.8C153.87,237.55,148.53,229.45,140.86,232.84Z" transform="translate(-0.69 -0.02)"/><path class="cls-4" d="M264.43,112.44c-3,.25-8.52-2.76-11.52-2-7,1.78-14.31,8.07-33.44,9.18-12.13.7-24.91-.72-35.11,6.39-4.21,2.94-5.07,5.66-7.42,10.44-4.71,9.54-11,8.83-12.67,13.9-2.19,6.56,3.25,16.62,2.21,22.21-.34,1.78,1.29,2,2.3.38,6.26-10,13.16-22.69,23.25-29.3,7.11-4.65,13.84-8.26,32.47-9.32,13.55-.77,21.2-6,31.37-7.37,14.87-2,12.51-9.16,21.7-10.45C274.14,114.44,270.69,111.92,264.43,112.44Z" transform="translate(-0.69 -0.02)"/></svg>