<?xml version="1.0" encoding="utf-8"?>
<!-- Generator: Adobe Illustrator 23.0.5, SVG Export Plug-In . SVG Version: 6.00 Build 0)  -->
<svg version="1.1" id="Layer_1" xmlns="http://www.w3.org/2000/svg" xmlns:xlink="http://www.w3.org/1999/xlink" x="0px" y="0px"
	 viewBox="0 0 299.3 245.4" style="enable-background:new 0 0 299.3 245.4;" xml:space="preserve">
<style type="text/css">
	.st0{fill:#8A7E6F;}
	.st1{fill:#645B53;}
	.st2{fill:#BAB3A9;}
	.st3{fill:#92897C;}
	.st4{fill:#504740;}
	.st5{fill:#FAFAFA;}
	.st6{fill:#5C4736;}
</style>
<title>pathar</title>
<g>
	<path class="st0" d="M223.5,40c-13.5-5.1-39.9-21.7-54.6-22.2c-4.8-0.2-17.9,2.6-28.7,25.1c-5.7,12-5.5,26.8-4.9,39.6
		c1.2,25.1,19.7,111.3,23.5,122.4c4.7,13.8,9.9,30,20,40.4c4.5-0.1,9-0.4,13.5-0.8c-0.5-1.1-1-2.3-1.5-3.6
		c-9.1-21.1-21.6-90.3,12.2-97.6c4.6-2.3,9.4-4.2,14.3-5.7c12.4-4,23.8-7.6,35.4-13.7c0.7-0.3,1.4-0.7,2.1-1.1l0.4-0.2l2.1-1.2l0,0
		c-1.7-8.9-4.6-18.1-9.6-25c-8.4-12-23.2-10.2-36.4-11.3c-8.7-0.7-16.5,1.2-20.2,5.1c-4,4.1-4.4-0.5-3.4-3.1
		c2.2-5.5,6.9-4.3,10.9-8.1c3.6-3.6,4-9.3,8.7-12.1c3.8-2.3,8,0.4,16.1-3.2c11.1-4.9,26.8,10.4,36.3,16.4c2.1,1.3,4.2,2.8,6.1,4.3
		c-8.8-14.4-19.3-27.7-31.3-39.6C231,43,227.3,41.4,223.5,40z"/>
	<path class="st1" d="M257.3,121.3l-2.1,1.2C255.9,122.1,256.6,121.7,257.3,121.3z"/>
	<path class="st1" d="M254.8,122.8c-0.7,0.4-1.4,0.8-2.1,1.1C253.4,123.6,254.1,123.2,254.8,122.8z"/>
	<path class="st2" d="M115.5,7.2C97.9,15.6,82,28.3,66.1,39.5c-15.5,10.9-32.9,20.9-46.8,34c-1,1-2,2-3,3.1
		c23.2-10.4,36.7-9.7,61.7-19.5c2.7-1.1,24.9-13.4,27.7-14.6c-11.4,34.2-7,93.5,5.9,122.8c2.1-8,4.8-18.2,2-44.1
		c-1.9-17.6-4.5-43.6-1.4-53.9c5.2-17.7,20.7-34.7,32.7-48.6c15.1-17.6,29.9-6.1,35.7-3.1c12.6,6.3,25.6,11.5,39,15.8
		c-3.1-2.6-6.4-5.2-9.7-7.7C182.5,3,148.1-8.2,115.5,7.2z"/>
	<path class="st3" d="M180.7,15.6c-5.8-3-20.6-14.5-35.7,3.1c-12,13.9-27.5,31-32.7,48.6c-3,10.4-0.4,36.3,1.4,54
		c2.8,25.9,0,36.1-2,44.1c-13-29.3-17.4-88.6-5.9-122.8c-2.8,1.2-24.9,13.5-27.7,14.6c-25,9.8-38.4,9-61.7,19.5
		C5.5,89,2.9,104.4,1.9,120.8c-1.5,25.4-5.2,75.4,4.3,88.9c1.2,1.6,2.5,3.1,3.9,4.5c-2.4-7.9,2.5-16.9,8.6-27.7
		c11.4-20.5,22.7-39.3,42-53.2c0.1,0,0.1,0,0.2,0.1c4.3-7.4,8.1-15,13-22c0.1-0.3,0.4-0.4,0.7-0.3s0.4,0.4,0.3,0.7l0,0
		c-2.2,18.5-16.7,37.5-26.1,53c-5.4,8.9-11.1,17.6-16.1,26.7c-6.1,11.2-9.1,20-7.1,33.1c0,0.1,0,0.1,0,0.2c3.6,1.7,7.3,3.1,11.1,4.4
		c-0.1-12.9,9.4-23.2,20.3-29.3c7.8-4.3,16.8-5.4,25-8.8c5.9-2.5,11.3-4.8,17.8-4.4c17.8,1.2,20.9,10.6,31.2,22.8
		c4.4,5.1,11.8-2.5,14.7-8.9c2-4.4,5.8-6.3,9.7-8.5c-6.5-27.8-19.1-89-20-109.5c-0.6-12.8-0.8-27.6,4.9-39.6
		c10.8-22.5,24-25.3,28.7-25.1c14.7,0.6,41.1,17.2,54.6,22.2c3.7,1.4,7.4,3,10.9,4.8c-4.7-4.7-9.6-9.1-14.8-13.5
		C206.3,27.1,193.3,21.8,180.7,15.6z"/>
	<path class="st1" d="M80,77.6c-9.1,3.4-19.6,3.6-27.5,9.8c-5.4,4.2-6.1,9.6-9,15.4c-3.7,7.4-11.1,11.8-16.2,18.1
		c-10.2,12.7-11.6,31-14.3,46.5c-1.7,9.4-7.8,27.9,4.2,33.3c0.7,0.3,1.4,0.1,1.8-0.6c0-0.1,0.1-0.2,0.1-0.3
		c7.1-19.4,18.9-35.8,32.4-51.2c8.2-9.4,21.1-24,23.5-36.8c0.8-2.2,4.9-21.9,12.8-32.6C91.3,74.4,83.2,76.4,80,77.6z"/>
	<path class="st0" d="M74,111.4c-4.9,7-8.8,14.6-13,22c0-0.1-0.1-0.1-0.2-0.1c-19.3,13.9-30.6,32.7-42,53.2
		c-6,10.8-10.9,19.8-8.5,27.7c4.5,4.4,9.7,7.9,15.4,10.5c0-0.1,0-0.1,0-0.2c-2-13.1,1-21.9,7.1-33.1c5-9.1,10.7-17.8,16.1-26.7
		c9.4-15.5,23.9-34.6,26.1-53c0.1-0.3,0-0.6-0.3-0.7S74.1,111.1,74,111.4z"/>
	<path class="st1" d="M155.5,192c-3.9,2.2-7.8,4.1-9.7,8.5c-2.9,6.4-10.3,14-14.7,8.9c-10.3-12.2-13.4-21.6-31.2-22.8
		c-6.5-0.4-11.9,1.9-17.8,4.4c-8.2,3.4-17.2,4.5-25,8.8c-11,6.1-20.4,16.4-20.3,29.3c0.7,0.3,1.5,0.5,2.2,0.8v-0.1
		c11.9-17.7,34.2-16.9,53.1-14.8c9.6,1,18.3,3.3,25.2,10.1c6.6,6.4,16.5,10.6,22.9,7.8c7.7-3.4,13,4.7,19.2,12.5
		c6.5,0.1,13,0.1,19.5-0.1c-10.2-10.5-15.3-26.6-20-40.4C158.2,202.8,157,198.2,155.5,192z"/>
	<path class="st1" d="M265.7,84.4c-1.9-1.6-4-3-6.1-4.3c-9.5-6-25.1-21.3-36.3-16.4c-8.1,3.5-12.3,0.9-16.1,3.2
		c-4.7,2.8-5.1,8.5-8.7,12.1c-3.9,3.9-8.7,2.7-10.9,8.1c-1.1,2.6-0.6,7.2,3.4,3.1c3.8-3.8,11.6-5.8,20.2-5.1
		c13.2,1.1,28-0.7,36.5,11.2c4.9,6.9,7.9,16.1,9.6,25l0,0c-0.7,0.4-1.4,0.8-2.1,1.2l-0.4,0.2c-0.7,0.4-1.4,0.8-2.1,1.1
		c-11.5,6.1-23,9.7-35.4,13.7c-4.9,1.5-9.7,3.4-14.3,5.7c-33.8,7.4-21.4,76.5-12.3,97.7c0.6,1.3,1.1,2.5,1.5,3.6
		c5.1-0.4,10.2-0.9,15.3-1.6c6.6-0.9,15.6-3.6,25.4-7.2c24.4-33,28.6-111.7,29-111.7c2.2-3.8,8.8-6.5,12.6-8.2
		c1-0.4,1.8,0.5,1.9,1.4c0.2,1,0.4,2,0.5,3c6.8,20.5,14.7,61.2,12.6,87.4c4.6-3.2,7.9-6,9.3-8.3c0,0,1.5-16.7-3.1-41.6
		C291.2,131.3,272,94.6,265.7,84.4z"/>
	<path class="st4" d="M277.1,120.2c-0.2-1-0.4-2-0.5-3c-0.1-0.8-1-1.8-1.9-1.4c-3.8,1.7-10.4,4.4-12.6,8.2c-0.4,0-4.5,78.7-29,111.7
		c16.7-4.8,35-0.4,44.4-5c10.9-5.3,17.7-12.2,16.7-16.6C296.2,187.8,283.9,140.6,277.1,120.2z"/>
	<path class="st0" d="M140.2,232.8c-6.3,2.8-16.3-1.3-22.9-7.8c-6.9-6.8-15.6-9.1-25.2-10.1c-18.9-2-41.3-2.9-53.1,14.8v0.1l0.3,0.1
		c17.7,5.9,36.2,8.7,54.7,10.6c21.6,2.3,43.6,4.4,65.5,4.8C153.2,237.5,147.8,229.4,140.2,232.8z"/>
	<path class="st3" d="M263.7,112.4c-3,0.3-8.5-2.8-11.5-2c-7,1.8-14.3,8.1-33.4,9.2c-12.1,0.7-24.9-0.7-35.1,6.4
		c-4.2,2.9-5.1,5.7-7.4,10.4c-4.7,9.5-11,8.8-12.7,13.9c-2.2,6.6,3.3,16.6,2.2,22.2c-0.3,1.8,1.3,2,2.3,0.4
		c6.3-10,13.2-22.7,23.3-29.3c7.1-4.6,13.8-8.3,32.5-9.3c13.6-0.8,21.2-6,31.4-7.4c14.9-2,12.5-9.2,21.7-10.4
		C273.4,114.4,270,111.9,263.7,112.4z"/>
</g>
<g>
	<g>
		<path class="st5" d="M100.8,153.4c0,0,10.7,33.3,42.9,33.3c32.2,0,42.9-33.3,42.9-33.3h-42.9H100.8z"/>
		<path class="st5" d="M143.7,189.4c-33.8,0-45.3-34.8-45.4-35.2c-0.3-0.8-0.1-1.7,0.4-2.4c0.5-0.7,1.3-1.1,2.1-1.1h85.8
			c0.8,0,1.6,0.4,2.1,1.1c0.5,0.7,0.6,1.6,0.4,2.4C189,154.5,177.5,189.4,143.7,189.4z M104.7,156c3.6,8.2,14.8,28,39,28
			c23.9,0,35.3-19.8,39-28H104.7z"/>
	</g>
	<ellipse class="st5" cx="94.5" cy="96.2" rx="22.2" ry="22.1"/>
	<ellipse class="st5" cx="192.8" cy="96.2" rx="22.2" ry="22.1"/>
	<g>
		<ellipse class="st6" cx="94.5" cy="96.2" rx="10.7" ry="10.6"/>
		<ellipse class="st6" cx="94.5" cy="96.2" rx="10.7" ry="10.6"/>
		<ellipse class="st6" cx="192.8" cy="96.2" rx="10.7" ry="10.6"/>
	</g>
</g>
</svg>
